<svg width="12" height="14" viewBox="0 0 12 14" fill="none" xmlns="http://www.w3.org/2000/svg">
<path d="M9.26367 9.84766C9.61133 9.84766 9.92773 9.93359 10.2129 10.1055C10.498 10.2734 10.7246 10.502 10.8926 10.791C11.0645 11.0762 11.1504 11.3926 11.1504 11.7402C11.1504 12.0879 11.0645 12.4043 10.8926 12.6895C10.7246 12.9746 10.498 13.2012 10.2129 13.3691C9.92773 13.5371 9.61133 13.6211 9.26367 13.6211C8.91602 13.6211 8.59766 13.5371 8.30859 13.3691C8.02344 13.2012 7.79492 12.9746 7.62305 12.6895C7.45508 12.4043 7.37109 12.0879 7.37109 11.7402C7.37109 11.3926 7.45508 11.0762 7.62305 10.791C7.79492 10.502 8.02344 10.2734 8.30859 10.1055C8.59766 9.93359 8.91602 9.84766 9.26367 9.84766ZM2.73047 4.7207C2.38281 4.7207 2.06641 4.63672 1.78125 4.46875C1.49609 4.29688 1.26758 4.06836 1.0957 3.7832C0.927734 3.49414 0.84375 3.17578 0.84375 2.82812C0.84375 2.48047 0.927734 2.16406 1.0957 1.87891C1.26758 1.59375 1.49609 1.36719 1.78125 1.19922C2.06641 1.02734 2.38281 0.941406 2.73047 0.941406C3.07812 0.941406 3.39453 1.02734 3.67969 1.19922C3.96484 1.36719 4.19141 1.59375 4.35938 1.87891C4.53125 2.16406 4.61719 2.48047 4.61719 2.82812C4.61719 3.17578 4.53125 3.49414 4.35938 3.7832C4.19141 4.06836 3.96484 4.29688 3.67969 4.46875C3.39453 4.63672 3.07812 4.7207 2.73047 4.7207ZM2.25586 4.9375V4.5332H3.19922V4.9375C3.19922 5.65234 3.6875 6.14648 4.66406 6.41992L7.61133 7.25195C8.31055 7.44336 8.83789 7.74219 9.19336 8.14844C9.55273 8.55078 9.73242 9.04297 9.73242 9.625V10.0352H8.78906V9.625C8.78906 8.91797 8.30273 8.42578 7.33008 8.14844L4.38281 7.31641C3.68359 7.125 3.1543 6.82812 2.79492 6.42578C2.43555 6.01953 2.25586 5.52344 2.25586 4.9375Z" fill="#64C1FF"/>
</svg>
