<svg width="16" height="12" viewBox="0 0 16 12" fill="none" xmlns="http://www.w3.org/2000/svg">
<path d="M10.4434 3.24023C10.2012 3.24023 9.98047 3.18164 9.78125 3.06445C9.58203 2.94727 9.42383 2.78906 9.30664 2.58984C9.18945 2.39062 9.13086 2.16797 9.13086 1.92188C9.13086 1.68359 9.18945 1.46484 9.30664 1.26562C9.42383 1.06641 9.58203 0.908203 9.78125 0.791016C9.98047 0.669922 10.2012 0.609375 10.4434 0.609375C10.6895 0.609375 10.9102 0.669922 11.1055 0.791016C11.3047 0.908203 11.4629 1.06641 11.5801 1.26562C11.7012 1.46484 11.7617 1.68359 11.7617 1.92188C11.7617 2.16797 11.7012 2.39062 11.5801 2.58984C11.4629 2.78906 11.3047 2.94727 11.1055 3.06445C10.9102 3.18164 10.6895 3.24023 10.4434 3.24023ZM6.04883 11.7832C5.90039 11.7051 5.79688 11.5859 5.73828 11.4258C5.68359 11.2656 5.69531 11.1094 5.77344 10.957L7.02148 8.46094L4.74805 6.79688C4.49023 6.60547 4.3125 6.38477 4.21484 6.13477C4.12109 5.88086 4.0957 5.62305 4.13867 5.36133C4.18164 5.0957 4.28906 4.85547 4.46094 4.64062C4.63281 4.42578 4.85352 4.26172 5.12305 4.14844L5.38086 4.04297L4.69531 3.36914C4.57031 3.24414 4.50586 3.09961 4.50195 2.93555C4.49805 2.77148 4.54688 2.62891 4.64844 2.50781C4.75391 2.38672 4.91016 2.32617 5.11719 2.32617H7.39062C7.83594 2.32617 8.2168 2.48242 8.5332 2.79492L11.2109 5.45508C11.2812 5.52148 11.3281 5.59375 11.3516 5.67188C11.3789 5.74609 11.3926 5.82227 11.3926 5.90039V8.61914C11.3926 8.78711 11.332 8.93164 11.2109 9.05273C11.0898 9.17383 10.9434 9.23438 10.7715 9.23438C10.6035 9.23438 10.457 9.17383 10.332 9.05273C10.2109 8.93164 10.1504 8.78711 10.1504 8.61914V6.1582L8.99609 4.99805C8.90625 4.91211 8.81055 4.89648 8.70898 4.95117L6.48242 6.06445L8.24609 7.83398C8.34375 7.92773 8.40039 8.04102 8.41602 8.17383C8.43555 8.30664 8.41797 8.43164 8.36328 8.54883L6.875 11.5078C6.78906 11.6836 6.6582 11.7891 6.48242 11.8242C6.31055 11.8633 6.16602 11.8496 6.04883 11.7832ZM0.986328 9.48633C0.818359 9.48633 0.673828 9.42578 0.552734 9.30469C0.431641 9.18359 0.371094 9.03906 0.371094 8.87109C0.371094 8.69922 0.431641 8.55273 0.552734 8.43164C0.673828 8.31055 0.818359 8.25 0.986328 8.25H3.50586L3.96289 6.87305C4.08398 7.02148 4.22656 7.15625 4.39062 7.27734L5.15234 7.83398L4.50195 9.14062C4.45117 9.23438 4.37695 9.31641 4.2793 9.38672C4.18555 9.45312 4.07812 9.48633 3.95703 9.48633H0.986328ZM13.4668 11.6074C13.4121 11.6074 13.3613 11.5996 13.3145 11.584C13.2676 11.5684 13.2148 11.5332 13.1562 11.4785L6.875 5.19141L7.53711 4.81055L13.3027 10.5703H15.2598C15.3574 10.5703 15.4414 10.6055 15.5117 10.6758C15.5859 10.75 15.623 10.8398 15.623 10.9453V11.2383C15.623 11.3359 15.5859 11.4219 15.5117 11.4961C15.4414 11.5703 15.3574 11.6074 15.2598 11.6074H13.4668Z" fill="#64C1FF"/>
</svg>
