<svg width="24" height="11" viewBox="0 0 24 11" fill="none" xmlns="http://www.w3.org/2000/svg">
<path d="M1.7168 10.584C1.23633 10.584 0.900391 10.5117 0.708984 10.3672C0.517578 10.2266 0.421875 10.0215 0.421875 9.75195C0.421875 9.37695 0.535156 8.98242 0.761719 8.56836C0.992188 8.15039 1.32227 7.75977 1.75195 7.39648C2.18555 7.0332 2.70703 6.73828 3.31641 6.51172C3.92578 6.28516 4.60938 6.17188 5.36719 6.17188C6.12891 6.17188 6.81445 6.28516 7.42383 6.51172C8.0332 6.73828 8.55273 7.0332 8.98242 7.39648C9.41602 7.75977 9.74805 8.15039 9.97852 8.56836C10.209 8.98242 10.3242 9.37695 10.3242 9.75195C10.3242 10.0215 10.2285 10.2266 10.0371 10.3672C9.8457 10.5117 9.50781 10.584 9.02344 10.584H1.7168ZM5.37305 5.13477C4.94727 5.13477 4.55469 5.01953 4.19531 4.78906C3.83984 4.55859 3.55273 4.24805 3.33398 3.85742C3.11914 3.46289 3.01172 3.02344 3.01172 2.53906C3.01172 2.0625 3.11914 1.63281 3.33398 1.25C3.55273 0.863281 3.8418 0.556641 4.20117 0.330078C4.56055 0.103516 4.95117 -0.00976562 5.37305 -0.00976562C5.79883 -0.00976562 6.19141 0.101562 6.55078 0.324219C6.91016 0.546875 7.19727 0.851562 7.41211 1.23828C7.63086 1.62109 7.74023 2.05078 7.74023 2.52734C7.74023 3.01953 7.63086 3.46289 7.41211 3.85742C7.19727 4.24805 6.91016 4.55859 6.55078 4.78906C6.19141 5.01953 5.79883 5.13477 5.37305 5.13477ZM12.0059 6.17188C12.7637 6.17188 13.4473 6.28516 14.0566 6.51172C14.666 6.73828 15.1855 7.0332 15.6152 7.39648C16.0488 7.75977 16.3789 8.15039 16.6055 8.56836C16.8359 8.98242 16.9512 9.37695 16.9512 9.75195C16.9512 10.0215 16.8555 10.2266 16.6641 10.3672C16.4727 10.5117 16.1367 10.584 15.6562 10.584H10.9219C11.0586 10.3535 11.127 10.0762 11.127 9.75195C11.127 9.18164 10.9746 8.63867 10.6699 8.12305C10.3652 7.60352 9.95703 7.14258 9.44531 6.74023C9.80469 6.56836 10.1973 6.43164 10.623 6.33008C11.0527 6.22461 11.5137 6.17188 12.0059 6.17188ZM12.0059 5.13477C11.5801 5.13477 11.1875 5.01953 10.8281 4.78906C10.4688 4.55859 10.1816 4.24805 9.9668 3.85742C9.75195 3.46289 9.64453 3.02344 9.64453 2.53906C9.64062 2.0625 9.74609 1.63281 9.96094 1.25C10.1797 0.863281 10.4688 0.556641 10.8281 0.330078C11.1914 0.103516 11.584 -0.00976562 12.0059 -0.00976562C12.4277 -0.00976562 12.8184 0.101562 13.1777 0.324219C13.5371 0.546875 13.8242 0.851562 14.0391 1.23828C14.2578 1.62109 14.3672 2.05078 14.3672 2.52734C14.3672 3.01953 14.2598 3.46289 14.0449 3.85742C13.8301 4.24805 13.543 4.55859 13.1836 4.78906C12.8242 5.01953 12.4316 5.13477 12.0059 5.13477ZM18.627 6.17188C19.3848 6.17188 20.0684 6.28516 20.6777 6.51172C21.291 6.73828 21.8125 7.0332 22.2422 7.39648C22.6719 7.75977 23.002 8.15039 23.2324 8.56836C23.4629 8.98242 23.5781 9.37695 23.5781 9.75195C23.5781 10.0215 23.4824 10.2266 23.291 10.3672C23.0996 10.5117 22.7617 10.584 22.2773 10.584H17.5488C17.6895 10.3535 17.7598 10.0762 17.7598 9.75195C17.7598 9.18164 17.6074 8.63672 17.3027 8.11719C16.998 7.59766 16.5879 7.13672 16.0723 6.73438C16.4316 6.56641 16.8242 6.43164 17.25 6.33008C17.6797 6.22461 18.1387 6.17188 18.627 6.17188ZM18.627 5.13477C18.2012 5.13477 17.8086 5.01953 17.4492 4.78906C17.0938 4.55859 16.8066 4.24805 16.5879 3.85742C16.373 3.46289 16.2656 3.02344 16.2656 2.53906C16.2656 2.0625 16.373 1.63281 16.5879 1.25C16.8066 0.863281 17.0957 0.556641 17.4551 0.330078C17.8145 0.103516 18.2051 -0.00976562 18.627 -0.00976562C19.0527 -0.00976562 19.4453 0.101562 19.8047 0.324219C20.1641 0.546875 20.4512 0.851562 20.666 1.23828C20.8848 1.62109 20.9941 2.05078 20.9941 2.52734C20.9941 3.01953 20.8848 3.46289 20.666 3.85742C20.4512 4.24805 20.1641 4.55859 19.8047 4.78906C19.4453 5.01953 19.0527 5.13477 18.627 5.13477Z" fill="#64C1FF"/>
</svg>
